<?xml version="1.0" standalone="no"?>
<!DOCTYPE svg PUBLIC "-//W3C//DTD SVG 20010904//EN" "http://www.w3.org/TR/2001/REC-SVG-20010904/DTD/svg10.dtd">
<!-- Created using Krita: https://krita.org -->
<svg xmlns="http://www.w3.org/2000/svg" 
    xmlns:xlink="http://www.w3.org/1999/xlink"
    xmlns:krita="http://krita.org/namespaces/svg/krita"
    xmlns:sodipodi="http://sodipodi.sourceforge.net/DTD/sodipodi-0.dtd"
    width="259.2pt"
    height="259.2pt"
    viewBox="0 0 259.2 259.2">
<defs/>
<g id="group0" transform="matrix(2.40067365926688 0 0 2.40067365926688 37.1846829015646 56.3516958416086)" fill="none">
  <path id="shape0" transform="translate(0.135317717638344, 8.26830374151774)" fill="#ffffff" fill-rule="evenodd" stroke="#000000" stroke-width="0.3144" stroke-linecap="square" stroke-linejoin="bevel" d="M8.52001 4.44089e-16L55.2 0C56.8568 1.11022e-16 58.2 1.34315 58.2 3.00001L52.68 67.44C52.68 69.0969 51.3368 70.44 49.68 70.44L3.00001 70.44C1.34315 70.44 0 69.0969 0 67.44L5.52 3.00001C5.52 1.34315 6.86315 3.33067e-16 8.52001 4.44089e-16Z" sodipodi:nodetypes="ccccccccc"/>
  <path id="shape01" transform="translate(0.154227363021747, 0)" fill="#ffffff" fill-rule="evenodd" stroke="#000000" stroke-width="0.3144" stroke-linecap="square" stroke-linejoin="bevel" d="M8.52001 0.961214C23.4569 -0.0356784 38.6787 -0.576873 55.2 0.961214C56.8568 0.961214 58.2 2.30436 58.2 3.96122C56.6199 25.4573 56.97 47.118 52.68 68.4012C52.68 70.0581 51.3368 71.4012 49.68 71.4012C33.5481 72.7737 17.5577 73.8069 3.00001 71.4012C1.34315 71.4012 0 70.0581 0 68.4012C1.70836 47.0967 2.93985 26.4281 5.52 3.96122C5.52 2.30436 6.86315 0.961214 8.52001 0.961214Z" sodipodi:nodetypes="ccccccccc"/>
  <path id="shape1" transform="translate(0, 3.94829854571196)" fill="#ffffff" fill-rule="evenodd" stroke="#000000" stroke-width="0.3144" stroke-linecap="square" stroke-linejoin="bevel" d="M0.180314 65.16C-0.125315 67.5991 0.0151589 70.1125 0.180314 72.63C0.708341 73.8336 1.57249 74.5161 2.70031 74.79C18.2241 75.7381 34.1115 75.7168 50.3553 74.745C51.6832 74.4392 52.5374 73.5807 52.9653 72.225C57.0473 50.8587 57.7884 19.8154 58.4553 6.93C58.6698 4.48231 58.6051 2.20888 58.4216 0C56.4462 21.648 57.2439 43.5918 52.9653 64.935C52.4669 66.1256 51.7511 67.0715 50.5353 67.455C34.3555 68.6234 18.1856 69.7175 2.47531 67.365C1.60974 67.1237 0.725697 66.9731 0.180314 65.16Z" sodipodi:nodetypes="ccccccccccc"/>
  <path id="shape2" transform="translate(52.1253078758268, 70.2182889744855)" fill="none" stroke="#000000" stroke-width="0.3144" stroke-linecap="square" stroke-linejoin="miter" stroke-miterlimit="2" d="M0.03 0C0.49312 2.29348 0.237754 4.71733 0 7.17" sodipodi:nodetypes="cc"/>
  <path id="shape3" transform="translate(5.2353109552062, 75.1682886265453)" fill="none" stroke="#000000" stroke-width="0.3144" stroke-linecap="square" stroke-linejoin="miter" stroke-miterlimit="2" d="M0 0C12.4884 1.25161 17.2716 2.10835 32.58 0.54" sodipodi:nodetypes="cc"/>
  <path id="shape02" transform="translate(7.81531078689798, 2.86829334294345)" fill="none" stroke="#bcbcbc" stroke-width="0.3144" stroke-linecap="square" stroke-linejoin="miter" stroke-miterlimit="2" d="M0 0C1.89038 1.07455 2.84601 2.21215 2.82 3.36" sodipodi:nodetypes="cc"/>
  <path id="shape11" transform="translate(54.195307761349, 3.25388150458124)" fill="none" stroke="#bcbcbc" stroke-width="0.3144" stroke-linecap="square" stroke-linejoin="miter" stroke-miterlimit="2" d="M2.4 0.0344118C1.66378 -0.114779 0.8949 0.160715 0 2.07441" sodipodi:nodetypes="cc"/>
  <path id="shape21" transform="translate(1.21531121744117, 67.4282891314425)" fill="none" stroke="#bcbcbc" stroke-width="0.3144" stroke-linecap="square" stroke-linejoin="miter" stroke-miterlimit="2" d="M0 2.34C0.285467 1.56 0.36436 0.78 1.68 0" sodipodi:nodetypes="cc"/>
  <path id="shape31" transform="translate(49.035308097956, 65.9882892253794)" fill="none" stroke="#bcbcbc" stroke-width="0.3144" stroke-linecap="square" stroke-linejoin="miter" stroke-miterlimit="2" d="M2.34 3.96C2.11242 2.47349 1.34239 1.15042 0 0" sodipodi:nodetypes="cc"/>
  <path id="shape4" transform="translate(48.135308027921, 42.7682907079234)" fill="none" stroke="#bcbcbc" stroke-width="0.3144" stroke-linecap="square" stroke-linejoin="miter" stroke-miterlimit="2" d="M4.8 1.035C3.2987 -0.099625 1.6077 0.283413 0 0" sodipodi:nodetypes="cc"/>
  <path id="shape5" transform="translate(3.82531108562577, 48.035782453693)" fill="none" stroke="#bcbcbc" stroke-width="0.3144" stroke-linecap="square" stroke-linejoin="miter" stroke-miterlimit="2" d="M0 0.417508C0.580912 0.153323 3.31965 -0.122259 3.915 0.057508" sodipodi:nodetypes="cc"/>
  <path id="shape6" transform="translate(52.845307844945, 12.7232926754764)" fill="none" stroke="#bcbcbc" stroke-width="0.3144" stroke-linecap="square" stroke-linejoin="miter" stroke-miterlimit="2" d="M3.195 0.72C2.44093 0.0522183 1.64951 0.171457 0 0" sodipodi:nodetypes="cc"/>
  <path id="shape7" transform="translate(6.55531088876198, 17.5082922108924)" fill="none" stroke="#bcbcbc" stroke-width="0.3144" stroke-linecap="square" stroke-linejoin="miter" stroke-miterlimit="2" d="M0 0C1.65038 0.231427 3.425 0.200555 4.74 1.14" sodipodi:nodetypes="cc"/>
  <path id="shape8" transform="translate(16.695313501378, 20.6991136490834)" fill="none" stroke="#bcbcbc" stroke-width="0.3144" stroke-linecap="square" stroke-linejoin="miter" stroke-miterlimit="2" d="M0 0.229184C3.6037 -0.754308 17.2145 1.61901 22.74 3.70918" sodipodi:nodetypes="cc"/>
  <path id="shape9" transform="translate(34.215312880617, 42.7682971702685)" fill="none" stroke="#bcbcbc" stroke-width="0.3144" stroke-linecap="square" stroke-linejoin="miter" stroke-miterlimit="2" d="M0 0.36C3.1877 0.678508 6.27197 0.479862 9.3 0" sodipodi:nodetypes="cc"/>
  <path id="shape10" transform="translate(11.895313671449, 49.3682969364204)" fill="none" stroke="#bcbcbc" stroke-width="0.3144" stroke-linecap="square" stroke-linejoin="miter" stroke-miterlimit="2" d="M0 0C3.56 1.00111 7.12 0.85848 10.68 0.6" sodipodi:nodetypes="cc"/>
 </g>
</svg>
