<?xml version="1.0" standalone="no"?>
<!DOCTYPE svg PUBLIC "-//W3C//DTD SVG 20010904//EN" "http://www.w3.org/TR/2001/REC-SVG-20010904/DTD/svg10.dtd">
<!-- Created using Krita: https://krita.org -->
<svg xmlns="http://www.w3.org/2000/svg" 
    xmlns:xlink="http://www.w3.org/1999/xlink"
    xmlns:krita="http://krita.org/namespaces/svg/krita"
    xmlns:sodipodi="http://sodipodi.sourceforge.net/DTD/sodipodi-0.dtd"
    width="259.2pt"
    height="259.2pt"
    viewBox="0 0 259.2 259.2">
<defs>
  <radialGradient id="gradient0" gradientUnits="objectBoundingBox" cx="0.789560463091174" cy="-0.0402423417894804" fx="0.545604411864678" fy="-0.0650610515122212" r="1.15871904926426" spreadMethod="pad">
   <stop stop-color="#d4692b" offset="0" stop-opacity="1"/>
   <stop stop-color="#96481a" offset="0.625" stop-opacity="1"/>
   <stop stop-color="#7a3812" offset="0.984375" stop-opacity="1"/>
  </radialGradient>
 </defs>
<path id="shape0" transform="matrix(2.27050426128779 0 0 2.27050426128779 131.115137541284 25.965633696502)" fill="url(#gradient0)" fill-rule="evenodd" stroke-opacity="0" stroke="#000000" stroke-width="0" stroke-linecap="square" stroke-linejoin="bevel" d="M0.12 4.57596L0.24 31.756L0.66 33.256L1.68 33.496L1.86 54.856L2.28 56.656L5.94 56.716L5.88 32.056L49.83 31.996L49.905 54.436L50.565 56.656L54.105 56.656C54.0725 52.2335 53.8487 36.396 53.94 31.9735C54.5187 32.0135 54.49 32.0535 54.405 30.121C53.755 25.056 53.825 23.141 51.87 0.705962C51.185 0.580962 51.2537 0.984712 50.7375 0.0384617C40.2312 -0.0977883 5.47 0.170962 1.095 0.180962L0 0.915962Z" sodipodi:nodetypes="ccccccccccccccccccc"/><path id="shape01" transform="matrix(2.27050426128779 0 0 2.27050426128779 133.532911969646 26.1685382847709)" fill="none" stroke="#000000" stroke-width="0.252" stroke-linecap="square" stroke-linejoin="bevel" d="M0 0.045L49.695 0L52.305 28.86L2.52 28.845Z" sodipodi:nodetypes="ccccc"/><path id="shape1" transform="matrix(2.27050426128779 0 0 2.27050426128779 131.353224971223 25.9982505947838)" fill="none" stroke="#000000" stroke-width="0.252" stroke-linecap="square" stroke-linejoin="bevel" d="M0.9 0.06C0.644519 0.653896 0.373892 1.13419 0 0.84L2.22 30.06L54.3 30.12L51.72 0.54C51.4007 0.711482 51.0782 0.829061 50.7 0" sodipodi:nodetypes="cccccc"/><path id="shape2" transform="matrix(2.27050426128779 0 0 2.27050426128779 252.215003729269 91.5760892699867)" fill="none" stroke="#000000" stroke-width="0.252" stroke-linecap="square" stroke-linejoin="miter" stroke-miterlimit="2" d="M0 0C0.144343 0.730268 0.56056 0.946998 0.9675 1.18125" sodipodi:nodetypes="cc"/><path id="shape3" transform="matrix(2.27050426128779 0 0 2.27050426128779 136.606604153592 91.5505460973015)" fill="none" stroke="#000000" stroke-width="0.252" stroke-linecap="square" stroke-linejoin="miter" stroke-miterlimit="2" d="M1.215 0C0.98222 0.608376 0.4975 0.880833 0 1.13625" sodipodi:nodetypes="cc"/><path id="shape4" transform="matrix(2.27050426128779 0 0 2.27050426128779 131.2169839742 27.8714059921559)" fill="none" stroke="#000000" stroke-width="0.252" stroke-linecap="square" stroke-linejoin="bevel" d="M0.045 0L0 2.925L2.025 31.095L54.465 31.11L54.465 29.205" sodipodi:nodetypes="ccccc"/><path id="shape5" transform="matrix(2.27050426128779 0 0 2.27050426128779 136.529974635541 98.7452064017632)" fill="none" stroke="#000000" stroke-width="0.252" stroke-linecap="square" stroke-linejoin="bevel" d="M0 0.06L2.68224e-09 24.63L3.51 24.63L3.48 0Z" sodipodi:nodetypes="ccccc"/><path id="shape6" transform="matrix(2.27050426128779 0 0 2.27050426128779 135.303891461825 95.2032070471001)" fill="none" stroke="#000000" stroke-width="0.252" stroke-linecap="square" stroke-linejoin="bevel" d="M0.57 26.16L0.03 23.79L0 0" sodipodi:nodetypes="ccc"/><path id="shape7" transform="matrix(2.27050426128779 0 0 2.27050426128779 132.770023212448 54.64520637397)" fill="none" stroke="#000000" stroke-width="0.252" stroke-linecap="square" stroke-linejoin="bevel" d="M0 0L0 20.701L0.888 20.701L0 0" sodipodi:nodetypes="cccc"/><path id="shape11" transform="matrix(2.27050426128779 0 0 2.27050426128779 131.544396498183 42.1828564254484)" fill="none" stroke="#000000" stroke-width="0.252" stroke-linecap="square" stroke-linejoin="bevel" d="M0.57 26.16L0.03 23.79L0 0" sodipodi:nodetypes="ccc"/><path id="shape011" transform="matrix(2.27050426128779 0 0 2.27050426128779 245.637245099106 98.5821900881249)" fill="none" stroke="#000000" stroke-width="0.252" stroke-linecap="square" stroke-linejoin="bevel" d="M0 0.06L2.68224e-09 24.63L3.51 24.63L3.48 0Z" sodipodi:nodetypes="ccccc"/><path id="shape12" transform="matrix(2.27050426128779 0 0 2.27050426128779 244.41116192539 98.8643824526177)" fill="none" stroke="#000000" stroke-width="0.252" stroke-linecap="square" stroke-linejoin="bevel" d="M0.57 24.4757L0.03 22.1348L0 0" sodipodi:nodetypes="ccc"/>
</svg>
